<?xml version="1.0" encoding="UTF-8"?>
<svg id="Layer_1" xmlns="http://www.w3.org/2000/svg" viewBox="0 0 607.16 231.57">
  <defs>
    <style>
      .cls-1 {
        fill: #2095d2;
      }
    </style>
  </defs>
  <path class="cls-1" d="M596.46,74.39c-14.56,0-27.87,5.59-39.92,16.76-7.15,6.6-16.28,18.14-27.39,34.65-9.39,13.85-16.58,23.32-21.58,28.43-8.27,8.44-16.71,12.66-25.33,12.66s-16.75-4.22-24.94-12.66c-4.99-5.11-12.19-14.58-21.58-28.43-11.11-16.51-20.24-28.05-27.39-34.65-12.03-11.15-25.3-16.74-39.81-16.76-.02,0-.04,0-.05,0,0,0-.01,0-.02,0-.01,0-.03,0-.04,0h0c-5.88.03-10.65,4.77-10.65,10.6s4.76,10.57,10.65,10.6h0c8.44,0,16.67,4.22,24.68,12.66,4.39,4.37,10.38,12.1,17.96,23.21-7.49,10.81-13.4,18.4-17.7,22.76-8.27,8.44-16.71,12.66-25.33,12.66s-16.75-4.22-24.93-12.66c-5-5.11-12.19-14.58-21.58-28.43-11.11-16.51-20.24-28.05-27.39-34.65-12.06-11.17-20.24-14.71-34.91-16.63,0,0-6.67-1.04-12.79-.49-16.2,1.44-29.59,5.96-41.48,17.87V27.62c0-10.77-4.79-19.27-14.67-25.3-2.33-1.36-4.53-2.31-7.18-2.31-6.25,0-11.32,5.02-11.32,11.21,0,3.35,1.49,6.35,3.85,8.4h0s.05.05.08.07c.48.41,1,.78,1.55,1.11,2,1.76,3.02,4.33,3.02,7.72v79.98c-5.98-7.97-11.18-14.01-15.58-18.13-12.06-11.18-25.41-16.77-40.05-16.77s-27.87,5.59-39.92,16.77c-7.07,6.59-16.15,18.14-27.26,34.64-9.39,13.84-16.58,23.32-21.58,28.42-8.1,8.27-16.3,12.48-24.57,12.65-.2-.01-.4-.03-.6-.03-5.91,0-10.7,4.76-10.7,10.63s4.79,10.63,10.7,10.63c.04,0,.07,0,.11,0h0c14.73,0,28.17-5.58,40.31-16.76,4.26-3.88,9.2-9.52,14.8-16.89.31.03.62.05.94.05h69.56c5.78,0,10.46-5.28,10.46-11.8s-4.68-11.8-10.46-11.8h-54.02c7.41-10.82,13.27-18.37,17.56-22.63,8.1-8.44,16.32-12.66,24.68-12.66s16.71,4.22,24.8,12.66c5,4.96,12.1,14.36,21.32,28.2,11.11,16.66,20.28,28.28,27.52,34.87,11.84,10.97,24.89,15.88,39.46,17.01,2.93.18,5.73.19,8.68.19,18.17,0,33.72-5.59,46.64-16.76,7.55-6.45,12.9-13.67,16.07-21.64,7.22,9.92,13.45,17.27,18.71,22,12.06,11.18,25.45,16.77,40.18,16.77s28.51-5.59,40.58-16.77c4.74-4.29,10.34-10.73,16.8-19.32,6.37,8.59,11.93,15.03,16.66,19.32,12.06,11.18,25.46,16.77,40.18,16.77s28.52-5.59,40.57-16.77c7.32-6.59,16.54-18.21,27.65-34.87,9.22-13.85,16.32-23.24,21.32-28.21,8.01-8.44,16.24-12.66,24.67-12.66,5.91,0,10.7-4.75,10.7-10.61s-4.79-10.6-10.7-10.6M275.76,156.08c-8.1,6.97-17.88,10.44-29.33,10.44s-21.32-3.47-29.33-10.44c-7.06-5.92-11.11-12.91-12.15-20.98v-8.44c1.03-8.06,5.08-15.06,12.15-20.99,8.01-7.1,17.79-10.66,29.33-10.66s21.23,3.56,29.33,10.66c8.01,6.89,12.02,15.29,12.02,25.21s-4.01,18.32-12.02,25.2"/>
  <path class="cls-1" d="M136.99,226.8c-6.66,0-9.1-4.52-9.1-10.92,0-5.77,2.21-10.77,9.26-10.77,1.79,0,3.68.29,5.25.8l-1.03,2.72c-1.35-.58-2.69-1.06-4.23-1.06-4.55,0-5.96,3.46-5.96,8.27,0,5.09,1.41,8.49,5.77,8.49,1.67,0,2.98-.55,4.64-1.22l1.03,2.73c-1.83.64-3.46.96-5.64.96"/>
  <path class="cls-1" d="M15.54,226.22l-2.05-5.86h-7.94l-2.18,5.86H0l8.43-20.73h2.82l7.82,20.73h-3.52ZM9.67,209.21l-3.24,8.75h6.25l-3.01-8.75Z"/>
  <path class="cls-1" d="M28.05,226.8c-1.8,0-4.13-.48-5.9-.96l1.03-2.73c1.54.58,3.2,1.22,4.9,1.22,2.53,0,4.9-.67,4.9-3.43,0-2.34-2.31-3.14-4.81-4.07-2.88-1.06-6.02-2.27-6.02-6.15s3.65-5.57,7.47-5.57c1.41,0,3.65.29,5.35.86l-1.02,2.72c-1.19-.51-2.37-1.12-4.36-1.12-2.98,0-4.17,1.28-4.17,3.11s1.86,2.53,4,3.3c3.08,1.09,6.83,2.28,6.83,6.86,0,4.81-3.91,5.96-8.2,5.96"/>
  <path class="cls-1" d="M46.37,226.8c-1.8,0-4.13-.48-5.9-.96l1.03-2.73c1.54.58,3.2,1.22,4.9,1.22,2.53,0,4.9-.67,4.9-3.43,0-2.34-2.31-3.14-4.81-4.07-2.88-1.06-6.02-2.27-6.02-6.15s3.65-5.57,7.47-5.57c1.41,0,3.65.29,5.35.86l-1.02,2.72c-1.19-.51-2.37-1.12-4.36-1.12-2.98,0-4.17,1.28-4.17,3.11s1.86,2.53,4.01,3.3c3.08,1.09,6.82,2.28,6.82,6.86,0,4.81-3.91,5.96-8.2,5.96"/>
  <path class="cls-1" d="M67.98,226.8c-7.18,0-9.35-4.68-9.35-10.86s2.47-10.83,9.39-10.83,9.23,4.52,9.23,10.83-2.37,10.86-9.26,10.86M67.98,207.58c-4.36,0-6.06,2.89-6.06,8.36s1.67,8.4,6.06,8.4,5.96-3.17,5.96-8.4c0-5.51-1.63-8.36-5.96-8.36"/>
  <path class="cls-1" d="M90.24,226.8c-6.66,0-9.1-4.52-9.1-10.92,0-5.77,2.21-10.77,9.26-10.77,1.79,0,3.69.29,5.25.8l-1.03,2.72c-1.34-.58-2.69-1.06-4.23-1.06-4.55,0-5.96,3.46-5.96,8.27,0,5.09,1.41,8.49,5.77,8.49,1.67,0,2.98-.55,4.64-1.22l1.03,2.73c-1.83.64-3.46.96-5.64.96"/>
  <rect class="cls-1" x="99.77" y="205.5" width="3.2" height="20.73"/>
  <path class="cls-1" d="M122.19,226.22l-2.05-5.86h-7.95l-2.18,5.86h-3.36l8.42-20.73h2.82l7.82,20.73h-3.53ZM116.33,209.21l-3.24,8.75h6.25l-3.01-8.75Z"/>
  <path class="cls-1" d="M160.61,226.22l-2.05-5.86h-7.95l-2.18,5.86h-3.36l8.43-20.73h2.82l7.82,20.73h-3.53ZM154.75,209.21l-3.24,8.75h6.25l-3.01-8.75Z"/>
  <path class="cls-1" d="M176.18,226.8c-7.18,0-9.35-4.68-9.35-10.86s2.47-10.83,9.39-10.83,9.23,4.52,9.23,10.83-2.37,10.86-9.26,10.86M176.18,207.58c-4.36,0-6.06,2.89-6.06,8.36s1.67,8.4,6.06,8.4,5.96-3.17,5.96-8.4c0-5.51-1.63-8.36-5.96-8.36"/>
  <path class="cls-1" d="M206.24,226.22h-7.56v-20.73h6.5c3.97,0,6.99,1.12,6.99,5.57,0,2.18-1.41,3.68-3.3,4.29,2.56.45,4.26,2.02,4.26,4.9,0,4.74-3.17,5.96-6.89,5.96M205.18,207.96h-3.3v6.38h3.75c1.83,0,3.27-.99,3.27-3.24,0-2.11-1.02-3.14-3.72-3.14M205.7,216.77h-3.81v6.98h4.17c2.15,0,3.78-.64,3.78-3.49s-1.86-3.49-4.13-3.49"/>
  <path class="cls-1" d="M229.3,226.22l-6.6-8.94h-1.5v8.94h-3.2v-20.73h7.11c3.3,0,6.82,1.15,6.82,5.77,0,2.92-1.35,5.51-5.51,5.93l6.76,9.03h-3.87ZM225.26,207.96h-4.07v6.85h4.1c2.43,0,3.36-1.54,3.36-3.55s-1.15-3.3-3.4-3.3"/>
  <path class="cls-1" d="M251.1,226.22l-2.05-5.86h-7.95l-2.18,5.86h-3.36l8.43-20.73h2.82l7.82,20.73h-3.53ZM245.24,209.21l-3.24,8.75h6.25l-3.01-8.75Z"/>
  <path class="cls-1" d="M263.62,226.8c-1.79,0-4.13-.48-5.9-.96l1.03-2.73c1.54.58,3.2,1.22,4.9,1.22,2.53,0,4.9-.67,4.9-3.43,0-2.34-2.31-3.14-4.81-4.07-2.88-1.06-6.02-2.27-6.02-6.15s3.65-5.57,7.46-5.57c1.41,0,3.65.29,5.35.86l-1.02,2.72c-1.19-.51-2.37-1.12-4.36-1.12-2.98,0-4.17,1.28-4.17,3.11s1.86,2.53,4.01,3.3c3.07,1.09,6.82,2.28,6.82,6.86,0,4.81-3.91,5.96-8.2,5.96"/>
  <rect class="cls-1" x="276.62" y="205.5" width="3.2" height="20.73"/>
  <polygon class="cls-1" points="285.58 226.22 285.58 205.49 288.78 205.49 288.78 223.66 297.82 223.66 297.82 226.22 285.58 226.22"/>
  <polygon class="cls-1" points="301.11 226.22 301.11 205.49 312.99 205.49 312.99 207.96 304.31 207.96 304.31 214.27 312.32 214.27 312.32 216.74 304.31 216.74 304.31 223.75 313.29 223.75 313.29 226.22 301.11 226.22"/>
  <rect class="cls-1" x="318.62" y="205.5" width="3.2" height="20.73"/>
  <path class="cls-1" d="M338.9,226.22l-6.6-8.94h-1.51v8.94h-3.2v-20.73h7.11c3.3,0,6.82,1.15,6.82,5.77,0,2.92-1.34,5.51-5.51,5.93l6.76,9.03h-3.88ZM334.86,207.96h-4.07v6.85h4.1c2.43,0,3.37-1.54,3.37-3.55s-1.15-3.3-3.4-3.3"/>
  <path class="cls-1" d="M360.71,226.22l-2.05-5.86h-7.95l-2.18,5.86h-3.36l8.43-20.73h2.82l7.82,20.73h-3.52ZM354.84,209.21l-3.24,8.75h6.25l-3.01-8.75Z"/>
  <path class="cls-1" d="M382.44,226.22h-5.93v-20.73h5.93c6.92,0,9.9,2.76,9.9,10.28s-2.98,10.45-9.9,10.45M382.44,207.96h-2.73v15.79h3.01c4.04,0,6.31-1.92,6.31-7.94,0-6.5-2.34-7.85-6.6-7.85"/>
  <polygon class="cls-1" points="397.36 226.22 397.36 205.49 409.24 205.49 409.24 207.96 400.56 207.96 400.56 214.27 408.57 214.27 408.57 216.74 400.56 216.74 400.56 223.75 409.53 223.75 409.53 226.22 397.36 226.22"/>
  <polygon class="cls-1" points="443.45 226.22 439.57 226.22 435.24 210.75 430.37 226.22 426.5 226.22 421.53 205.49 424.89 205.49 428.84 222.22 433.55 206.36 437.39 206.36 441.59 222.25 445.78 205.49 448.86 205.49 443.45 226.22"/>
  <path class="cls-1" d="M463.74,226.22l-2.05-5.86h-7.95l-2.18,5.86h-3.36l8.43-20.73h2.82l7.81,20.73h-3.52ZM457.88,209.21l-3.24,8.75h6.25l-3.01-8.75Z"/>
  <polygon class="cls-1" points="483.59 226.22 474.53 216.48 474.53 226.22 471.32 226.22 471.32 205.49 474.53 205.49 474.53 214.59 482.92 205.49 486.51 205.49 477.47 215.26 487.76 226.22 483.59 226.22"/>
  <polygon class="cls-1" points="491.3 226.22 491.3 205.49 503.19 205.49 503.19 207.96 494.51 207.96 494.51 214.27 502.52 214.27 502.52 216.74 494.51 216.74 494.51 223.75 503.48 223.75 503.48 226.22 491.3 226.22"/>
  <path class="cls-1" d="M516.76,226.22h-7.56v-20.73h6.5c3.97,0,6.98,1.12,6.98,5.57,0,2.18-1.41,3.68-3.3,4.29,2.56.45,4.26,2.02,4.26,4.9,0,4.74-3.17,5.96-6.89,5.96M515.71,207.96h-3.3v6.38h3.75c1.83,0,3.27-.99,3.27-3.24,0-2.11-1.02-3.14-3.71-3.14M516.22,216.77h-3.81v6.98h4.16c2.15,0,3.78-.64,3.78-3.49s-1.86-3.49-4.13-3.49"/>
  <path class="cls-1" d="M536.74,226.8c-7.18,0-9.36-4.68-9.36-10.86s2.47-10.83,9.39-10.83,9.23,4.52,9.23,10.83-2.37,10.86-9.26,10.86M536.74,207.58c-4.36,0-6.06,2.89-6.06,8.36s1.67,8.4,6.06,8.4,5.96-3.17,5.96-8.4c0-5.51-1.63-8.36-5.96-8.36"/>
  <path class="cls-1" d="M564.09,226.22l-2.05-5.86h-7.95l-2.18,5.86h-3.36l8.43-20.73h2.82l7.82,20.73h-3.53ZM558.23,209.21l-3.24,8.75h6.25l-3.01-8.75Z"/>
  <path class="cls-1" d="M582.98,226.22l-6.6-8.94h-1.51v8.94h-3.2v-20.73h7.11c3.3,0,6.82,1.15,6.82,5.77,0,2.92-1.34,5.51-5.51,5.93l6.76,9.03h-3.88ZM578.95,207.96h-4.07v6.85h4.1c2.44,0,3.36-1.54,3.36-3.55s-1.15-3.3-3.4-3.3"/>
  <path class="cls-1" d="M597.26,226.22h-5.93v-20.73h5.93c6.92,0,9.9,2.76,9.9,10.28s-2.98,10.45-9.9,10.45M597.26,207.96h-2.72v15.79h3.01c4.03,0,6.31-1.92,6.31-7.94,0-6.5-2.34-7.85-6.6-7.85"/>
  <polygon class="cls-1" points="137.28 226.58 136.56 231.57 133.58 231.19 134.86 226.23 137.28 226.58"/>
  <rect class="cls-1" x="150.69" y="202.21" width="7.84" height="2.11"/>
</svg>